<svg id="visual" viewBox="0 0 900 600" width="900" height="600" xmlns="http://www.w3.org/2000/svg" xmlns:xlink="http://www.w3.org/1999/xlink" version="1.1"><path d="M0 462L21.5 459.3C43 456.7 86 451.3 128.8 441.2C171.7 431 214.3 416 257.2 420.2C300 424.3 343 447.7 385.8 458.8C428.7 470 471.3 469 514.2 470.2C557 471.3 600 474.7 642.8 468.5C685.7 462.3 728.3 446.7 771.2 446.7C814 446.7 857 462.3 878.5 470.2L900 478L900 601L878.5 601C857 601 814 601 771.2 601C728.3 601 685.7 601 642.8 601C600 601 557 601 514.2 601C471.3 601 428.7 601 385.8 601C343 601 300 601 257.2 601C214.3 601 171.7 601 128.8 601C86 601 43 601 21.5 601L0 601Z" fill="#b930b9"></path><path d="M0 447L21.5 454.3C43 461.7 86 476.3 128.8 476.7C171.7 477 214.3 463 257.2 459.5C300 456 343 463 385.8 466.5C428.7 470 471.3 470 514.2 475.5C557 481 600 492 642.8 493.7C685.7 495.3 728.3 487.7 771.2 486.8C814 486 857 492 878.5 495L900 498L900 601L878.5 601C857 601 814 601 771.2 601C728.3 601 685.7 601 642.8 601C600 601 557 601 514.2 601C471.3 601 428.7 601 385.8 601C343 601 300 601 257.2 601C214.3 601 171.7 601 128.8 601C86 601 43 601 21.5 601L0 601Z" fill="#c042c0"></path><path d="M0 520L21.5 518.5C43 517 86 514 128.8 511.2C171.7 508.3 214.3 505.7 257.2 499.3C300 493 343 483 385.8 484.7C428.7 486.3 471.3 499.7 514.2 504.5C557 509.3 600 505.7 642.8 500.5C685.7 495.3 728.3 488.7 771.2 483.3C814 478 857 474 878.5 472L900 470L900 601L878.5 601C857 601 814 601 771.2 601C728.3 601 685.7 601 642.8 601C600 601 557 601 514.2 601C471.3 601 428.7 601 385.8 601C343 601 300 601 257.2 601C214.3 601 171.7 601 128.8 601C86 601 43 601 21.5 601L0 601Z" fill="#c751c7"></path><path d="M0 549L21.5 549.3C43 549.7 86 550.3 128.8 546C171.7 541.7 214.3 532.3 257.2 524.7C300 517 343 511 385.8 511.3C428.7 511.7 471.3 518.3 514.2 523C557 527.7 600 530.3 642.8 531.2C685.7 532 728.3 531 771.2 530.5C814 530 857 530 878.5 530L900 530L900 601L878.5 601C857 601 814 601 771.2 601C728.3 601 685.7 601 642.8 601C600 601 557 601 514.2 601C471.3 601 428.7 601 385.8 601C343 601 300 601 257.2 601C214.3 601 171.7 601 128.8 601C86 601 43 601 21.5 601L0 601Z" fill="#ce5fce"></path><path d="M0 540L21.5 542C43 544 86 548 128.8 554.3C171.7 560.7 214.3 569.3 257.2 572.8C300 576.3 343 574.7 385.8 574.5C428.7 574.3 471.3 575.7 514.2 570.5C557 565.3 600 553.7 642.8 551.3C685.7 549 728.3 556 771.2 558C814 560 857 557 878.5 555.5L900 554L900 601L878.5 601C857 601 814 601 771.2 601C728.3 601 685.7 601 642.8 601C600 601 557 601 514.2 601C471.3 601 428.7 601 385.8 601C343 601 300 601 257.2 601C214.3 601 171.7 601 128.8 601C86 601 43 601 21.5 601L0 601Z" fill="#d56cd5"></path></svg>